<svg width="420" height="420" viewBox="0 0 420 420" fill="none" xmlns="http://www.w3.org/2000/svg">
  <rect width="420" height="420" rx="48" fill="#0D1327"/>
  <circle cx="210" cy="210" r="160" fill="url(#paint0_linear)"/>
  <path d="M130 318C145 255 187 224 210 224C233 224 275 254 290 318" fill="#1D2949"/>
  <circle cx="168" cy="180" r="24" fill="#F3D8C7"/>
  <circle cx="252" cy="180" r="24" fill="#F3D8C7"/>
  <path d="M146 152C157 117 186 96 210 96C234 96 263 117 274 152" stroke="#F3D8C7" stroke-width="18" stroke-linecap="round"/>
  <path d="M156 288C168 265 186 252 210 252C234 252 252 265 264 288" stroke="#F2E6D9" stroke-width="16" stroke-linecap="round"/>
  <circle cx="168" cy="180" r="9" fill="#0D1327"/>
  <circle cx="252" cy="180" r="9" fill="#0D1327"/>
  <path d="M176 219C188 230 232 230 244 219" stroke="#0D1327" stroke-width="10" stroke-linecap="round"/>
  <defs>
    <linearGradient id="paint0_linear" x1="96" y1="80" x2="332" y2="344" gradientUnits="userSpaceOnUse">
      <stop stop-color="#7B61FF"/>
      <stop offset="1" stop-color="#40C9FF"/>
    </linearGradient>
  </defs>
</svg>
